<?xml version="1.0" standalone="no"?>
<!DOCTYPE svg PUBLIC "-//W3C//DTD SVG 20010904//EN"
 "http://www.w3.org/TR/2001/REC-SVG-20010904/DTD/svg10.dtd">
<svg version="1.0" xmlns="http://www.w3.org/2000/svg"
 width="1280.000000pt" height="413.000000pt" viewBox="0 0 1280.000000 413.000000"
 preserveAspectRatio="xMidYMid meet">

<g transform="translate(0.000000,413.000000) scale(0.100000,-0.100000)"
fill="685dd800" stroke="none">
<path d="M5845 4119 c-32 -12 -92 -54 -113 -79 -49 -57 -67 -174 -38 -244 22
-52 83 -113 131 -132 70 -26 173 -17 227 22 190 133 110 425 -121 440 -31 2
-69 -1 -86 -7z"/>
<path d="M10120 4117 c-51 -17 -136 -103 -149 -152 -46 -168 60 -315 227 -315
35 0 77 6 95 13 111 47 171 176 137 298 -13 47 -72 115 -123 140 -48 25 -138
33 -187 16z"/>
<path d="M10800 2885 l0 -1185 300 0 300 0 2 410 3 411 320 -410 320 -410 373
-1 c204 0 372 3 372 6 0 3 -164 208 -365 455 -201 247 -368 454 -370 461 -4
10 519 670 633 801 14 16 -3 17 -341 17 l-357 0 -292 -377 -293 -377 -3 692
-2 692 -300 0 -300 0 0 -1185z"/>
<path d="M380 3539 l-375 -411 -3 -54 -3 -54 126 0 125 0 0 -327 c0 -479 13
-589 82 -727 98 -195 346 -294 644 -256 109 13 274 57 358 94 l56 25 0 230 c0
127 -2 231 -5 231 -3 0 -28 -11 -55 -25 -28 -14 -90 -39 -139 -55 -184 -62
-327 -24 -360 95 -7 26 -11 163 -11 378 l0 337 265 0 265 0 0 210 0 210 -265
0 -265 0 -2 253 -3 252 -30 3 c-28 2 -57 -28 -405 -409z"/>
<path d="M8586 3538 l-376 -412 0 -53 0 -53 124 0 124 0 5 -422 c4 -463 7
-488 68 -614 61 -129 182 -223 335 -261 97 -23 302 -23 414 1 90 19 247 69
293 92 l27 15 0 233 0 234 -67 -34 c-99 -49 -179 -74 -258 -81 -84 -6 -142 7
-186 44 -61 52 -63 63 -67 446 l-4 347 271 0 271 0 0 210 0 210 -270 0 -270 0
0 255 0 255 -29 0 c-25 0 -77 -53 -405 -412z"/>
<path d="M7034 3506 c-98 -19 -137 -32 -224 -77 -140 -72 -230 -176 -271 -311
-18 -57 -21 -87 -17 -160 5 -76 11 -100 41 -161 52 -105 166 -214 292 -280 28
-15 117 -58 199 -97 165 -77 208 -106 232 -152 33 -65 -10 -135 -99 -159 -60
-16 -258 -6 -327 17 -30 10 -111 46 -180 81 -68 35 -126 63 -127 63 -2 0 -3
-98 -3 -218 l0 -219 133 -41 c184 -58 242 -70 399 -84 150 -13 308 -2 422 28
250 66 404 258 405 504 2 269 -119 403 -514 572 -77 32 -159 71 -183 84 -42
25 -82 75 -82 102 0 29 35 85 64 103 97 59 335 18 528 -92 49 -27 90 -49 93
-49 3 0 5 95 5 211 l0 210 -62 29 c-72 32 -169 62 -278 86 -103 22 -354 28
-446 10z"/>
<path d="M1693 2863 c4 -640 4 -635 59 -803 45 -140 93 -212 178 -269 142 -94
432 -117 635 -50 87 29 186 91 264 165 38 35 71 64 75 64 3 0 6 -54 6 -120 l0
-120 300 0 300 0 0 865 0 865 -300 0 -300 0 0 -506 0 -507 -49 -66 c-66 -88
-148 -167 -194 -186 -60 -25 -146 -30 -209 -11 -71 20 -109 63 -140 153 -22
67 -22 79 -26 596 l-3 527 -300 0 -300 0 4 -597z"/>
<path d="M4840 3446 c-150 -42 -293 -173 -392 -360 l-37 -71 -1 208 0 207
-300 0 -300 0 0 -865 0 -865 300 0 300 0 0 369 c0 408 -3 385 71 537 126 257
348 325 553 169 33 -24 61 -43 62 -42 2 1 50 131 107 287 58 157 108 293 112
302 5 14 -11 26 -84 63 -50 25 -117 52 -148 60 -68 18 -181 18 -243 1z"/>
<path d="M5620 2580 l0 -880 300 0 300 0 0 880 0 880 -300 0 -300 0 0 -880z"/>
<path d="M9900 2580 l0 -880 300 0 300 0 0 880 0 880 -300 0 -300 0 0 -880z"/>
<path d="M5510 1323 c-1087 -43 -2259 -228 -3320 -523 -272 -76 -746 -223
-822 -255 l-29 -12 93 -64 c51 -35 225 -154 386 -266 l292 -202 138 53 c558
218 1214 419 1823 560 2309 535 4721 464 6978 -205 112 -33 207 -57 211 -52 4
4 11 17 14 29 5 17 0 23 -26 31 -18 6 -135 47 -259 91 -1324 468 -2734 741
-4194 812 -184 9 -1083 11 -1285 3z"/>
</g>
</svg>
